<?xml version="1.0" encoding="UTF-8"?>
<svg xmlns="http://www.w3.org/2000/svg" xmlns:xlink="http://www.w3.org/1999/xlink" width="25pt" height="118pt" viewBox="0 0 25 118" version="1.1">
<g id="surface1">
<path style=" stroke:none;fill-rule:nonzero;fill:rgb(0%,0%,0%);fill-opacity:1;" d="M 24 116 L 16.5 116 C 12.101562 116 12 111.5 12 111 L 12 78 C 12 77.699219 12 69.601562 8.800781 65.398438 C 6.601562 62.5 4 60.199219 2.601562 59 C 4 57.800781 6.601562 55.5 8.800781 52.601562 C 12 48.398438 12 40.300781 12 40 L 12 7 C 12 6.5 12.101562 2 16.5 2 L 24 2 C 24.601562 2 25 1.601562 25 1 C 25 0.398438 24.601562 0 24 0 L 16.5 0 C 12 0 10 3.601562 10 7 L 10 40 C 10 40.101562 10 47.699219 7.199219 51.398438 C 4.300781 55.199219 0.398438 58.199219 0.398438 58.199219 L 0.300781 58.300781 C 0.300781 58.300781 0.199219 58.300781 0.199219 58.398438 C 0.199219 58.398438 0.199219 58.398438 0.199219 58.5 C 0.199219 58.601562 0.101562 58.601562 0.101562 58.699219 C 0.101562 58.800781 0.101562 58.800781 0 58.898438 C 0 59 0 59 0 59.101562 C 0 59.199219 0 59.199219 0 59.300781 C 0 59.398438 0 59.398438 0.101562 59.5 C 0.101562 59.601562 0.101562 59.601562 0.199219 59.699219 C 0.199219 59.699219 0.199219 59.699219 0.199219 59.800781 C 0.199219 59.800781 0.300781 59.800781 0.300781 59.898438 L 0.398438 60 C 0.398438 60 4.300781 63 7.199219 66.800781 C 10 70.300781 10 77.898438 10 78 L 10 111 C 10 114.398438 12 118 16.5 118 L 24 118 C 24.601562 118 25 117.601562 25 117 C 25 116.398438 24.601562 116 24 116 Z M 24 116 "/>
</g>
</svg>
